<?xml version="1.0" encoding="UTF-8"?>
<svg xmlns="http://www.w3.org/2000/svg" version="1.1" xmlns:xlink="http://www.w3.org/1999/xlink" viewBox="0 0 396 88.4">
  <!-- Generator: Adobe Illustrator 29.0.1, SVG Export Plug-In . SVG Version: 2.1.0 Build 192)  -->
  <defs>
    <style>
      .st0 {
        fill: #010101;
      }

      .st1 {
        fill: #fff;
      }

      .st2 {
        fill: none;
      }

      .st3 {
        fill: red;
      }

      .st4 {
        fill: #6cbe55;
      }

      .st5 {
        display: none;
      }

      .st6 {
        fill: #fedd0f;
      }

      .st7 {
        clip-path: url(#clippath);
      }

      .st8 {
        fill: #1f4397;
      }
    </style>
    <clipPath id="clippath">
      <rect class="st2" y="0" width="396" height="88.4"/>
    </clipPath>
  </defs>
  <g id="Layer_1" class="st5">
    <g class="st7">
      <path class="st1" d="M291.5,35l-19.7-10.1h6.1l-23.8-12.2-24,12.2h6.5l-19.6,10.1h11.4v7.8c0,0,0,.1,0,.2h0c0,14.3,11.6,25.9,25.9,25.9s25.9-11.6,25.9-25.9v-8.1h11.3Z"/>
      <path class="st4" d="M238.6,22.9l15.5-7.9,15.4,7.9h-4.3v41.1s-4.6,2.7-11.2,2.7-11.1-2.8-11.1-2.8V22.9h-4.4Z"/>
      <path class="st8" d="M266.9,24.7v38.4c6.7-4.2,11.2-11.7,11.2-20.3v-1.6s0-1.3,0-1.3v-7h5l-16.2-8.3Z"/>
      <path class="st6" d="M225.4,33.1h5v10c0,1.4.1,2.8.4,4.2,1.2,6.7,5.2,12.3,10.7,15.9V24.8l-16.1,8.3Z"/>
      <path class="st8" d="M296.3,47.1v-13.8h6.4c2.5,0,4,1.7,4,4.4s-1.5,4.5-4,4.5h-3v4.9h-3.4ZM299.7,39.3h2.4c.6,0,1.2-.5,1.2-1.5s-.6-1.5-1.2-1.5h-2.4v3Z"/>
      <path class="st8" d="M308.8,46.1c-1-.9-1.5-2.1-1.5-3.7v-4.4c0-1.6.5-2.8,1.5-3.7,1-.9,2.4-1.3,4.1-1.3s3.1.5,4.1,1.3c1,.9,1.5,2.1,1.5,3.7v4.4c0,1.6-.5,2.8-1.5,3.7-1,.9-2.4,1.3-4.1,1.3s-3.1-.4-4.1-1.3M315.1,37.9c0-.9-.7-1.7-2.2-1.7s-2.2.8-2.2,1.7v4.7c0,.9.7,1.8,2.2,1.8s2.2-.8,2.2-1.8v-4.7Z"/>
      <path class="st8" d="M320,47.1v-13.8h6c2.9,0,4.5,1.6,4.5,4.4s-.7,3.2-2.1,4l2.5,4.3v1.1h-3.3l-2.8-5h-1.4v5h-3.4ZM323.4,39.3h2.1c1.1,0,1.6-.4,1.6-1.5s-.5-1.5-1.6-1.5h-2.1v3Z"/>
      <polygon class="st8" points="334.4 47.1 334.4 36.3 330.7 36.3 330.7 33.4 341.5 33.4 341.5 36.3 337.8 36.3 337.8 47.1 334.4 47.1"/>
      <path class="st8" d="M343.1,46.1c-1-.9-1.5-2.1-1.5-3.7v-4.4c0-1.6.5-2.8,1.5-3.7,1-.9,2.4-1.3,4.1-1.3s3.1.5,4.1,1.3c1,.9,1.5,2.1,1.5,3.7v4.4c0,1.6-.5,2.8-1.5,3.7-1,.9-2.4,1.3-4.1,1.3s-3.1-.4-4.1-1.3M349.4,37.9c0-.9-.7-1.7-2.2-1.7s-2.2.8-2.2,1.7v4.7c0,.9.7,1.8,2.2,1.8s2.2-.8,2.2-1.8v-4.7Z"/>
      <polygon class="st8" points="300.6 63.2 296.1 50.5 296.1 49.4 299.3 49.4 302.4 58.6 305.3 49.4 308.5 49.4 308.5 50.5 304 63.2 300.6 63.2"/>
      <polygon class="st8" points="309 63.2 309 49.4 318.2 49.4 318.2 52.3 312.4 52.3 312.4 54.9 317.3 54.9 317.3 57.7 312.4 57.7 312.4 60.2 318.3 60.2 318.3 63.2 309 63.2"/>
      <polygon class="st8" points="319.6 63.2 319.6 49.4 323 49.4 323 60.2 328.9 60.2 328.9 63.2 319.6 63.2"/>
      <polygon class="st8" points="329.4 63.2 329.4 49.4 332.8 49.4 332.8 54.8 336.9 54.8 336.9 49.4 340.3 49.4 340.3 63.2 336.9 63.2 336.9 57.8 332.8 57.8 332.8 63.2 329.4 63.2"/>
      <path class="st8" d="M343.3,62.1c-1-.9-1.5-2.1-1.5-3.7v-4.4c0-1.6.5-2.8,1.5-3.7,1-.9,2.4-1.3,4.1-1.3s3.1.5,4.1,1.3c1,.9,1.5,2.1,1.5,3.7v4.4c0,1.6-.5,2.8-1.5,3.7-1,.9-2.4,1.3-4.1,1.3s-3.1-.4-4.1-1.3M349.6,53.9c0-.9-.7-1.7-2.2-1.7s-2.2.8-2.2,1.7v4.7c0,.9.7,1.8,2.2,1.8s2.2-.8,2.2-1.8v-4.7Z"/>
      <path class="st0" d="M296.4,28.5v-2c0-1.4.9-2.2,2.3-2.2s1.2.2,1.6.5c.4.4.6.9.6,1.5h0c0,0-.8,0-.8,0h0c0-.5-.1-.9-.4-1.1-.3-.2-.6-.4-1-.4-1,0-1.6.5-1.6,1.4v2.1c0,.9.5,1.4,1.6,1.4s.7-.1,1-.4c.3-.2.4-.6.4-1h0c0,0,.8,0,.8,0h0c0,.8-.2,1.3-.6,1.6-.4.4-.9.5-1.6.5-1.5,0-2.3-.8-2.3-2.2"/>
      <rect class="st0" x="304" y="24.5" width=".8" height="6.1"/>
      <path class="st0" d="M308.1,30.6v-6.1h2.1c1.4,0,2.3.8,2.3,2.1v1.8c0,1.3-.9,2.1-2.3,2.1h-2.1ZM308.8,29.9h1.4c1,0,1.6-.6,1.6-1.4v-1.9c0-.9-.6-1.4-1.6-1.4h-1.4v4.7Z"/>
      <path class="st0" d="M315.1,30.6v-.3l2.3-5.8h.8l2.3,5.8v.3h-.7l-.6-1.6h-2.6l-.6,1.6h-.7ZM316.6,28.3h2.2l-1.1-2.8-1.1,2.8Z"/>
      <path class="st0" d="M323.1,30.6v-6.1h2.1c1.4,0,2.3.8,2.3,2.1v1.8c0,1.3-.9,2.1-2.3,2.1h-2.1ZM323.8,29.9h1.4c1,0,1.6-.6,1.6-1.4v-1.9c0-.9-.6-1.4-1.6-1.4h-1.4v4.7Z"/>
      <polygon class="st0" points="330.7 30.6 330.7 24.5 334.5 24.5 334.5 25.2 331.4 25.2 331.4 27.2 334.1 27.2 334.1 27.8 331.4 27.8 331.4 29.9 334.5 29.9 334.5 30.6 330.7 30.6"/>
      <path class="st0" d="M341.4,30.6v-6.1h2.1c1.4,0,2.3.8,2.3,2.1v1.8c0,1.3-.9,2.1-2.3,2.1h-2.1ZM342.1,29.9h1.4c1,0,1.6-.6,1.6-1.4v-1.9c0-.9-.6-1.4-1.6-1.4h-1.4v4.7Z"/>
      <polygon class="st0" points="349 30.6 349 24.5 352.7 24.5 352.7 25.2 349.7 25.2 349.7 27.2 352.3 27.2 352.3 27.8 349.7 27.8 349.7 29.9 352.8 29.9 352.8 30.6 349 30.6"/>
      <rect class="st8" x="211" y="24.1" width="1" height="38.8"/>
      <path class="st8" d="M112.1,22.1c1.1-2,2.7-3.6,4.7-4.7,2-1.1,4.2-1.7,6.8-1.7s5.7.8,7.9,2.4c2.2,1.6,3.7,3.9,4.4,6.7h-7c-.5-1.1-1.3-1.9-2.2-2.5-1-.6-2-.9-3.2-.9-2,0-3.5.7-4.7,2-1.2,1.4-1.8,3.2-1.8,5.5s.6,4.1,1.8,5.5c1.2,1.4,2.8,2,4.7,2s2.3-.3,3.2-.9c1-.6,1.7-1.4,2.2-2.5h7c-.7,2.8-2.2,5-4.4,6.7-2.2,1.6-4.8,2.4-7.9,2.4s-4.8-.6-6.8-1.7c-2-1.1-3.5-2.7-4.7-4.7-1.1-2-1.7-4.3-1.7-6.9s.6-4.9,1.7-6.9"/>
      <path class="st8" d="M157,24.2c-.5-.9-1.1-1.5-2-2-.9-.5-1.9-.7-3.1-.7-2.1,0-3.7.7-4.9,2-1.2,1.3-1.9,3.1-1.9,5.4s.6,4.3,1.9,5.6c1.3,1.3,3.1,2,5.4,2s2.9-.4,4-1.2c1.1-.8,1.9-1.9,2.4-3.4h-8v-4.7h13.8v5.9c-.5,1.6-1.3,3.1-2.4,4.4s-2.6,2.5-4.3,3.3c-1.7.8-3.7,1.3-5.9,1.3s-4.9-.6-6.9-1.7c-2-1.1-3.6-2.7-4.7-4.7-1.1-2-1.7-4.3-1.7-6.9s.6-4.9,1.7-6.9c1.1-2,2.7-3.6,4.7-4.7,2-1.1,4.3-1.7,6.9-1.7s5.7.8,7.9,2.3c2.1,1.5,3.6,3.6,4.2,6.3h-7Z"/>
      <polygon class="st8" points="197.5 16 197.5 42 191.2 42 191.2 26.4 185.3 42 180.2 42 174.4 26.4 174.4 42 168 42 168 16 175.5 16 182.8 34 190.1 16 197.5 16"/>
      <path class="st8" d="M99.4,50.2c.3-.6.8-1.1,1.4-1.5.6-.3,1.3-.5,2.1-.5s1.8.3,2.5.8c.7.5,1.1,1.2,1.4,2.1h-2.2c-.2-.3-.4-.6-.7-.8-.3-.2-.6-.3-1-.3-.6,0-1.1.2-1.5.6-.4.4-.6,1-.6,1.7s.2,1.3.6,1.7c.4.4.9.6,1.5.6s.7,0,1-.3c.3-.2.5-.4.7-.8h2.2c-.2.9-.7,1.6-1.4,2.1-.7.5-1.5.8-2.5.8s-1.5-.2-2.1-.5c-.6-.3-1.1-.8-1.4-1.5-.3-.6-.5-1.3-.5-2.1s.2-1.5.5-2.1"/>
      <path class="st8" d="M109.8,56c-.6-.4-1.1-.8-1.5-1.5-.4-.6-.6-1.3-.6-2.1s.2-1.5.6-2.1.9-1.1,1.5-1.5c.6-.4,1.3-.5,2.1-.5s1.5.2,2.1.5c.6.4,1.1.8,1.5,1.5.4.6.5,1.3.5,2.1s-.2,1.5-.6,2.1c-.4.6-.9,1.1-1.5,1.5-.6.4-1.3.5-2.1.5s-1.5-.2-2.1-.5M113.4,54.1c.4-.4.6-1,.6-1.7s-.2-1.3-.6-1.7c-.4-.4-.9-.6-1.6-.6s-1.2.2-1.6.6c-.4.4-.6,1-.6,1.7s.2,1.3.6,1.7c.4.4.9.6,1.6.6s1.2-.2,1.6-.6"/>
      <polygon class="st8" points="124.3 56.4 122.4 56.4 119.1 51.4 119.1 56.4 117.1 56.4 117.1 48.3 119.1 48.3 122.4 53.4 122.4 48.3 124.3 48.3 124.3 56.4"/>
      <polygon class="st8" points="131.6 48.3 131.6 49.9 129.5 49.9 129.5 56.4 127.5 56.4 127.5 49.9 125.3 49.9 125.3 48.3 131.6 48.3"/>
      <path class="st8" d="M136.7,56.4l-1.7-3.1h-.5v3.1h-2v-8.1h3.3c.6,0,1.2.1,1.6.3.4.2.8.5,1,.9.2.4.3.8.3,1.3s-.2,1-.5,1.4c-.3.4-.8.7-1.3.9l1.9,3.2h-2.2ZM134.6,52h1.2c.4,0,.6,0,.8-.3.2-.2.3-.4.3-.8s0-.5-.3-.7c-.2-.2-.5-.3-.8-.3h-1.2v2Z"/>
      <path class="st8" d="M141.9,56c-.6-.4-1.1-.8-1.5-1.5-.4-.6-.6-1.3-.6-2.1s.2-1.5.6-2.1.9-1.1,1.5-1.5c.6-.4,1.3-.5,2.1-.5s1.5.2,2.1.5c.6.4,1.1.8,1.5,1.5.4.6.5,1.3.5,2.1s-.2,1.5-.6,2.1c-.4.6-.9,1.1-1.5,1.5-.6.4-1.3.5-2.1.5s-1.5-.2-2.1-.5M145.5,54.1c.4-.4.6-1,.6-1.7s-.2-1.3-.6-1.7c-.4-.4-.9-.6-1.6-.6s-1.2.2-1.6.6c-.4.4-.6,1-.6,1.7s.2,1.3.6,1.7c.4.4.9.6,1.6.6s1.2-.2,1.6-.6"/>
      <polygon class="st8" points="151.2 54.9 153.7 54.9 153.7 56.4 149.2 56.4 149.2 48.3 151.2 48.3 151.2 54.9"/>
      <path class="st8" d="M159.7,55h-3l-.5,1.4h-2.1l2.9-8.1h2.3l2.9,8.1h-2.1l-.5-1.4ZM159.2,53.5l-1-3-1,3h2Z"/>
      <path class="st8" d="M168.5,48.9c.6.3,1.1.8,1.5,1.4.4.6.5,1.3.5,2.1s-.2,1.5-.5,2.1c-.4.6-.8,1.1-1.5,1.4-.6.3-1.4.5-2.2.5h-3v-8.1h3c.9,0,1.6.2,2.2.5M167.8,54.1c.4-.4.6-1,.6-1.7s-.2-1.3-.6-1.7c-.4-.4-1-.6-1.7-.6h-.9v4.7h.9c.7,0,1.3-.2,1.7-.6"/>
      <path class="st8" d="M173.3,56c-.6-.4-1.1-.8-1.5-1.5-.4-.6-.6-1.3-.6-2.1s.2-1.5.6-2.1.9-1.1,1.5-1.5c.6-.4,1.3-.5,2.1-.5s1.5.2,2.1.5c.6.4,1.1.8,1.5,1.5.4.6.5,1.3.5,2.1s-.2,1.5-.6,2.1c-.4.6-.9,1.1-1.5,1.5-.6.4-1.3.5-2.1.5s-1.5-.2-2.1-.5M177,54.1c.4-.4.6-1,.6-1.7s-.2-1.3-.6-1.7c-.4-.4-.9-.6-1.6-.6s-1.2.2-1.6.6c-.4.4-.6,1-.6,1.7s.2,1.3.6,1.7c.4.4.9.6,1.6.6s1.2-.2,1.6-.6"/>
      <path class="st8" d="M184.8,56.4l-1.7-3.1h-.5v3.1h-2v-8.1h3.3c.6,0,1.2.1,1.6.3.4.2.8.5,1,.9.2.4.3.8.3,1.3s-.2,1-.5,1.4c-.3.4-.8.7-1.3.9l1.9,3.2h-2.2ZM182.6,52h1.2c.4,0,.6,0,.8-.3.2-.2.3-.4.3-.8s0-.5-.3-.7c-.2-.2-.5-.3-.8-.3h-1.2v2Z"/>
      <rect class="st8" x="188.2" y="48.3" width="2" height="8.1"/>
      <path class="st8" d="M196.6,55h-3l-.5,1.4h-2.1l2.9-8.1h2.3l2.9,8.1h-2.1l-.5-1.4ZM196.1,53.5l-1-3-1,3h2Z"/>
      <path class="st8" d="M83.9,63.4c-.1-.3-.4-.5-.6-.6-.3-.1-.6-.2-1-.2-.6,0-1.2.2-1.5.6-.4.4-.6,1-.6,1.7s.2,1.3.6,1.7c.4.4,1,.6,1.7.6s.9-.1,1.2-.4c.3-.2.6-.6.7-1.1h-2.5v-1.5h4.3v1.8c-.1.5-.4,1-.7,1.4-.3.4-.8.8-1.3,1-.5.3-1.1.4-1.8.4s-1.5-.2-2.1-.5c-.6-.4-1.1-.8-1.5-1.5-.3-.6-.5-1.3-.5-2.1s.2-1.5.5-2.1c.4-.6.8-1.1,1.5-1.5s1.3-.5,2.1-.5,1.8.2,2.5.7c.7.5,1.1,1.1,1.3,1.9h-2.2Z"/>
      <polygon class="st8" points="89.3 62.4 89.3 64 91.9 64 91.9 65.6 89.3 65.6 89.3 67.3 92.2 67.3 92.2 68.9 87.3 68.9 87.3 60.8 92.2 60.8 92.2 62.4 89.3 62.4"/>
      <path class="st8" d="M97.7,68.9l-1.7-3.1h-.5v3.1h-2v-8.1h3.3c.6,0,1.2.1,1.6.3.5.2.8.5,1,.9s.3.8.3,1.3-.2,1-.5,1.4c-.3.4-.8.7-1.3.9l1.9,3.2h-2.2ZM95.5,64.5h1.2c.4,0,.6,0,.8-.3.2-.2.3-.4.3-.8s0-.5-.3-.7c-.2-.2-.5-.3-.8-.3h-1.2v2Z"/>
      <path class="st8" d="M106.1,67.5h-3l-.5,1.4h-2.1l2.9-8.1h2.3l2.9,8.1h-2.1l-.5-1.4ZM105.6,66l-1-3-1,3h2Z"/>
      <polygon class="st8" points="111.5 67.4 114.1 67.4 114.1 68.9 109.5 68.9 109.5 60.8 111.5 60.8 111.5 67.4"/>
      <path class="st8" d="M122.8,61.3c.6.3,1.1.8,1.5,1.4.4.6.5,1.3.5,2.1s-.2,1.5-.5,2.1c-.3.6-.8,1.1-1.5,1.4-.6.3-1.4.5-2.2.5h-3v-8.1h3c.9,0,1.6.2,2.2.5M122.1,66.6c.4-.4.6-1,.6-1.7s-.2-1.3-.6-1.7c-.4-.4-1-.6-1.7-.6h-.9v4.7h.9c.7,0,1.3-.2,1.7-.6"/>
      <path class="st8" d="M127.6,68.5c-.6-.4-1.1-.8-1.5-1.5-.4-.6-.6-1.3-.6-2.1s.2-1.5.6-2.1c.4-.6.9-1.1,1.5-1.5.6-.4,1.3-.5,2.1-.5s1.5.2,2.1.5c.6.4,1.1.8,1.5,1.5.4.6.5,1.3.5,2.1s-.2,1.5-.6,2.1c-.4.6-.9,1.1-1.5,1.5-.6.4-1.3.5-2.1.5s-1.5-.2-2.1-.5M131.3,66.6c.4-.4.6-1,.6-1.7s-.2-1.3-.6-1.7c-.4-.4-.9-.6-1.6-.6s-1.2.2-1.6.6c-.4.4-.6,1-.6,1.7s.2,1.3.6,1.7c.4.4.9.6,1.6.6s1.2-.2,1.6-.6"/>
      <polygon class="st8" points="146.6 60.8 146.6 68.9 144.6 68.9 144.6 64.1 142.8 68.9 141.2 68.9 139.4 64 139.4 68.9 137.4 68.9 137.4 60.8 139.7 60.8 142 66.4 144.3 60.8 146.6 60.8"/>
      <path class="st8" d="M149.9,60.8v4.8c0,.5.1.9.4,1.1.2.3.6.4,1.1.4s.8-.1,1.1-.4c.2-.3.4-.6.4-1.1v-4.8h2v4.8c0,.7-.2,1.3-.5,1.8s-.7.9-1.2,1.1c-.5.3-1.1.4-1.7.4s-1.2-.1-1.7-.4c-.5-.2-.9-.6-1.2-1.1-.3-.5-.4-1.1-.4-1.8v-4.8h2Z"/>
      <polygon class="st8" points="163.4 68.9 161.4 68.9 158.1 63.9 158.1 68.9 156.1 68.9 156.1 60.8 158.1 60.8 161.4 65.8 161.4 60.8 163.4 60.8 163.4 68.9"/>
      <rect class="st8" x="164.8" y="60.8" width="2" height="8.1"/>
      <path class="st8" d="M168.4,62.7c.3-.6.8-1.1,1.4-1.5.6-.4,1.3-.5,2.1-.5s1.8.3,2.5.8c.7.5,1.1,1.2,1.4,2.1h-2.2c-.2-.3-.4-.6-.7-.8-.3-.2-.6-.3-1-.3-.6,0-1.1.2-1.5.6-.4.4-.6,1-.6,1.7s.2,1.3.6,1.7c.4.4.9.6,1.5.6s.7,0,1-.3c.3-.2.5-.4.7-.8h2.2c-.2.9-.7,1.6-1.4,2.1-.7.5-1.5.8-2.5.8s-1.5-.2-2.1-.5c-.6-.4-1.1-.8-1.4-1.5-.3-.6-.5-1.3-.5-2.1s.2-1.5.5-2.1"/>
      <path class="st8" d="M179.3,59.2l-2.8,1.2v-1.4l2.8-1.3v1.5ZM179,68.9h-2v-8.1h2v8.1Z"/>
      <path class="st8" d="M186.3,64.7c-.2.4-.5.7-1,.9-.4.2-1,.4-1.7.4h-1.2v2.9h-2v-8.1h3.2c.6,0,1.2.1,1.6.3s.8.5,1,.9c.2.4.3.8.3,1.4s-.1.9-.3,1.3M184.3,64.2c.2-.2.3-.4.3-.8s0-.6-.3-.8c-.2-.2-.5-.3-.8-.3h-1.1v2h1.1c.4,0,.7,0,.8-.3"/>
      <rect class="st8" x="187.6" y="60.8" width="2" height="8.1"/>
      <path class="st8" d="M192.8,68.5c-.6-.4-1.1-.8-1.5-1.5-.4-.6-.6-1.3-.6-2.1s.2-1.5.6-2.1c.4-.6.9-1.1,1.5-1.5.6-.4,1.3-.5,2.1-.5s1.5.2,2.1.5c.6.4,1.1.8,1.5,1.5.4.6.5,1.3.5,2.1s-.2,1.5-.6,2.1c-.4.6-.9,1.1-1.5,1.5-.6.4-1.3.5-2.1.5s-1.5-.2-2.1-.5M196.4,66.6c.4-.4.6-1,.6-1.7s-.2-1.3-.6-1.7c-.4-.4-.9-.6-1.6-.6s-1.2.2-1.6.6c-.4.4-.6,1-.6,1.7s.2,1.3.6,1.7c.4.4.9.6,1.6.6s1.2-.2,1.6-.6"/>
    </g>
  </g>
  <g id="Layer_3" class="st5">
    <rect class="st3" x="-11" y="-6.7" width="431.2" height="101"/>
  </g>
  <g id="Layer_2">
    <g>
      <path class="st1" d="M307.3,35.7l-28.4-14.5h8.9L253.5,3.7l-34.5,17.5h9.3l-28.3,14.6h16.4v11.3c0,0,0,.2,0,.3h0c0,20.6,16.7,37.4,37.3,37.4s37.4-16.7,37.4-37.4v-11.6h16.3Z"/>
      <path class="st4" d="M231.2,18.3l22.3-11.3,22.2,11.3h-6.2v59.2s-6.7,3.9-16.1,3.9-16-4-16-4V18.3h-6.3Z"/>
      <path class="st8" d="M271.8,20.9v55.4c9.7-6.1,16.2-16.9,16.2-29.2v-2.3s0-1.9,0-1.9v-10h7.2l-23.4-12Z"/>
      <path class="st6" d="M212.1,32.9h7.3v14.3c0,2.1.2,4.1.6,6.1,1.7,9.6,7.5,17.8,15.4,22.8V20.9l-23.2,12Z"/>
      <path class="st8" d="M314.3,53.2v-19.9h9.2c3.6,0,5.8,2.4,5.8,6.4s-2.2,6.4-5.8,6.4h-4.3v7h-4.9ZM319.1,41.9h3.4c.9,0,1.8-.7,1.8-2.1s-.9-2.2-1.8-2.2h-3.4v4.3Z"/>
      <path class="st8" d="M332.3,51.7c-1.4-1.3-2.2-3-2.2-5.3v-6.3c0-2.3.7-4,2.2-5.3,1.4-1.3,3.4-1.9,5.9-1.9s4.4.7,5.9,1.9c1.4,1.3,2.2,3,2.2,5.3v6.3c0,2.2-.7,4-2.2,5.3-1.4,1.3-3.4,1.9-5.9,1.9s-4.4-.6-5.9-1.9M341.4,39.9c0-1.3-1-2.5-3.2-2.5s-3.2,1.2-3.2,2.5v6.7c0,1.3,1.1,2.5,3.2,2.5s3.2-1.2,3.2-2.5v-6.7Z"/>
      <path class="st8" d="M348.4,53.2v-19.9h8.7c4.2,0,6.4,2.3,6.4,6.3s-1,4.5-3,5.8l3.7,6.2v1.6h-4.7l-4.1-7.3h-2v7.3h-4.9ZM353.3,41.9h3c1.6,0,2.3-.6,2.3-2.2s-.7-2.1-2.3-2.1h-3v4.3Z"/>
      <polygon class="st8" points="369.1 53.2 369.1 37.6 363.8 37.6 363.8 33.3 379.3 33.3 379.3 37.6 374 37.6 374 53.2 369.1 53.2"/>
      <path class="st8" d="M381.7,51.7c-1.4-1.3-2.2-3-2.2-5.3v-6.3c0-2.3.7-4,2.2-5.3,1.4-1.3,3.4-1.9,5.9-1.9s4.4.7,5.9,1.9c1.4,1.3,2.2,3,2.2,5.3v6.3c0,2.2-.7,4-2.2,5.3-1.4,1.3-3.4,1.9-5.9,1.9s-4.4-.6-5.9-1.9M390.7,39.9c0-1.3-1-2.5-3.2-2.5s-3.2,1.2-3.2,2.5v6.7c0,1.3,1.1,2.5,3.2,2.5s3.2-1.2,3.2-2.5v-6.7Z"/>
      <polygon class="st8" points="320.5 76.3 313.9 58 313.9 56.4 318.6 56.4 323 69.7 327.3 56.4 331.9 56.4 331.9 58 325.3 76.3 320.5 76.3"/>
      <polygon class="st8" points="332.6 76.3 332.6 56.4 345.9 56.4 345.9 60.7 337.5 60.7 337.5 64.3 344.6 64.3 344.6 68.3 337.5 68.3 337.5 72 345.9 72 345.9 76.3 332.6 76.3"/>
      <polygon class="st8" points="347.9 76.3 347.9 56.4 352.7 56.4 352.7 72 361.3 72 361.3 76.3 347.9 76.3"/>
      <polygon class="st8" points="362 76.3 362 56.4 366.8 56.4 366.8 64.2 372.8 64.2 372.8 56.4 377.7 56.4 377.7 76.3 372.8 76.3 372.8 68.5 366.8 68.5 366.8 76.3 362 76.3"/>
      <path class="st8" d="M382,74.8c-1.4-1.3-2.2-3-2.2-5.3v-6.3c0-2.3.7-4,2.2-5.3,1.4-1.3,3.4-1.9,5.9-1.9s4.4.7,5.9,1.9c1.4,1.3,2.2,3,2.2,5.3v6.3c0,2.2-.7,4-2.2,5.3-1.4,1.3-3.4,1.9-5.9,1.9s-4.4-.6-5.9-1.9M391.1,63c0-1.3-1-2.5-3.2-2.5s-3.2,1.2-3.2,2.5v6.7c0,1.3,1.1,2.5,3.2,2.5s3.2-1.2,3.2-2.5v-6.7Z"/>
      <path class="st0" d="M314.3,26.3v-2.8c0-2,1.2-3.1,3.3-3.1s1.7.2,2.3.8c.6.5.9,1.2.9,2.2h0c0,.1-1.1.1-1.1.1h0c0-.8-.2-1.2-.6-1.6-.4-.3-.9-.5-1.5-.5-1.5,0-2.2.8-2.2,2.1v3c0,1.3.8,2.1,2.2,2.1s1.1-.2,1.5-.5c.4-.3.6-.8.6-1.5h0c0-.1,1.1-.1,1.1-.1h0c0,1.1-.3,1.8-.9,2.3-.6.5-1.4.8-2.3.8-2.1,0-3.3-1.2-3.3-3.1"/>
      <rect class="st0" x="325.3" y="20.6" width="1.1" height="8.7"/>
      <path class="st0" d="M331.2,29.3v-8.7h3c2.1,0,3.4,1.1,3.4,3v2.6c0,1.9-1.3,3-3.4,3h-3ZM332.3,28.3h2c1.4,0,2.3-.8,2.3-2.1v-2.7c0-1.2-.8-2.1-2.3-2.1h-2v6.8Z"/>
      <path class="st0" d="M341.3,29.3v-.4l3.3-8.4h1.1l3.3,8.4v.4h-1.1l-.9-2.3h-3.8l-.9,2.3h-1ZM343.5,26.1h3.1l-1.5-4-1.6,4Z"/>
      <path class="st0" d="M352.8,29.3v-8.7h3c2.1,0,3.4,1.1,3.4,3v2.6c0,1.9-1.3,3-3.4,3h-3ZM353.9,28.3h2c1.4,0,2.3-.8,2.3-2.1v-2.7c0-1.2-.8-2.1-2.3-2.1h-2v6.8Z"/>
      <polygon class="st0" points="363.8 29.3 363.8 20.6 369.2 20.6 369.2 21.5 364.9 21.5 364.9 24.4 368.6 24.4 368.6 25.4 364.9 25.4 364.9 28.3 369.2 28.3 369.2 29.3 363.8 29.3"/>
      <path class="st0" d="M379.2,29.3v-8.7h3c2.1,0,3.4,1.1,3.4,3v2.6c0,1.9-1.3,3-3.4,3h-3ZM380.3,28.3h2c1.4,0,2.3-.8,2.3-2.1v-2.7c0-1.2-.8-2.1-2.3-2.1h-2v6.8Z"/>
      <polygon class="st0" points="390.1 29.3 390.1 20.6 395.6 20.6 395.6 21.5 391.2 21.5 391.2 24.4 395 24.4 395 25.4 391.2 25.4 391.2 28.3 395.6 28.3 395.6 29.3 390.1 29.3"/>
      <rect class="st8" x="191.4" y="19.9" width="1.4" height="55.9"/>
      <path class="st8" d="M48.9,17.1c1.6-2.9,3.8-5.2,6.7-6.8,2.9-1.6,6.1-2.4,9.8-2.4s8.3,1.2,11.4,3.5c3.2,2.4,5.3,5.6,6.4,9.6h-10c-.7-1.6-1.8-2.8-3.2-3.6-1.4-.8-2.9-1.2-4.7-1.2-2.8,0-5.1,1-6.8,2.9-1.7,2-2.6,4.6-2.6,7.9s.9,5.9,2.6,7.9c1.7,2,4,2.9,6.8,2.9s3.3-.4,4.7-1.2c1.4-.8,2.4-2,3.2-3.6h10c-1.1,4.1-3.2,7.3-6.4,9.6-3.2,2.3-7,3.5-11.4,3.5s-6.9-.8-9.8-2.4c-2.9-1.6-5.1-3.9-6.7-6.8-1.6-2.9-2.4-6.2-2.4-9.9s.8-7,2.4-9.9"/>
      <path class="st8" d="M113.7,20.2c-.7-1.2-1.6-2.2-2.9-2.9-1.3-.7-2.8-1-4.5-1-3,0-5.3,1-7.1,2.9-1.8,1.9-2.7,4.5-2.7,7.8s.9,6.2,2.8,8.1c1.9,1.9,4.4,2.9,7.7,2.9s4.1-.6,5.7-1.7c1.5-1.1,2.7-2.8,3.4-4.9h-11.6v-6.7h19.9v8.5c-.7,2.3-1.8,4.4-3.4,6.4s-3.7,3.5-6.2,4.8c-2.5,1.2-5.3,1.8-8.4,1.8s-7-.8-9.9-2.4c-2.9-1.6-5.2-3.9-6.8-6.8-1.6-2.9-2.4-6.2-2.4-9.9s.8-7,2.4-9.9c1.6-2.9,3.9-5.2,6.8-6.8,2.9-1.6,6.2-2.4,9.9-2.4s8.3,1.1,11.4,3.3c3.1,2.2,5.1,5.2,6.1,9h-10.1Z"/>
      <polygon class="st8" points="171.9 8.3 171.9 45.8 162.8 45.8 162.8 23.3 154.4 45.8 147 45.8 138.6 23.3 138.6 45.8 129.5 45.8 129.5 8.3 140.3 8.3 150.8 34.3 161.2 8.3 171.9 8.3"/>
      <path class="st8" d="M30.6,57.7c.5-.9,1.2-1.6,2.1-2.1.9-.5,1.9-.8,3-.8s2.6.4,3.6,1.1c1,.7,1.6,1.7,2,3h-3.1c-.2-.5-.6-.9-1-1.1-.4-.3-.9-.4-1.5-.4-.9,0-1.6.3-2.1.9-.5.6-.8,1.4-.8,2.4s.3,1.8.8,2.4c.5.6,1.3.9,2.1.9s1-.1,1.5-.4c.4-.3.8-.6,1-1.1h3.1c-.3,1.3-1,2.3-2,3-1,.7-2.2,1.1-3.6,1.1s-2.1-.3-3-.8c-.9-.5-1.6-1.2-2.1-2.1-.5-.9-.7-1.9-.7-3.1s.2-2.2.7-3.1"/>
      <path class="st8" d="M45.5,65.9c-.9-.5-1.6-1.2-2.2-2.1-.5-.9-.8-1.9-.8-3.1s.3-2.2.8-3.1,1.3-1.6,2.2-2.1c.9-.5,1.9-.8,3-.8s2.1.3,3,.8c.9.5,1.6,1.2,2.2,2.1.5.9.8,1.9.8,3.1s-.3,2.2-.8,3.1c-.5.9-1.3,1.6-2.2,2.1-.9.5-1.9.8-3,.8s-2.1-.3-3-.8M50.8,63.2c.6-.6.8-1.4.8-2.5s-.3-1.9-.8-2.5c-.6-.6-1.3-.9-2.2-.9s-1.7.3-2.3.9c-.6.6-.8,1.4-.8,2.5s.3,1.9.8,2.5c.6.6,1.3.9,2.3.9s1.7-.3,2.2-.9"/>
      <polygon class="st8" points="66.5 66.6 63.7 66.6 58.9 59.4 58.9 66.6 56.1 66.6 56.1 54.9 58.9 54.9 63.7 62.1 63.7 54.9 66.5 54.9 66.5 66.6"/>
      <polygon class="st8" points="77 54.9 77 57.2 73.9 57.2 73.9 66.6 71.1 66.6 71.1 57.2 68 57.2 68 54.9 77 54.9"/>
      <path class="st8" d="M84.4,66.6l-2.4-4.4h-.7v4.4h-2.8v-11.7h4.8c.9,0,1.7.2,2.4.5.6.3,1.1.8,1.5,1.3.3.6.5,1.2.5,1.9s-.2,1.5-.7,2.1c-.4.6-1.1,1-1.9,1.3l2.7,4.6h-3.2ZM81.3,60.2h1.8c.5,0,.9-.1,1.2-.4.3-.3.4-.6.4-1.1s-.1-.8-.4-1c-.3-.3-.7-.4-1.2-.4h-1.8v2.9Z"/>
      <path class="st8" d="M91.8,65.9c-.9-.5-1.6-1.2-2.2-2.1-.5-.9-.8-1.9-.8-3.1s.3-2.2.8-3.1,1.3-1.6,2.2-2.1c.9-.5,1.9-.8,3-.8s2.1.3,3,.8c.9.5,1.6,1.2,2.2,2.1.5.9.8,1.9.8,3.1s-.3,2.2-.8,3.1c-.5.9-1.3,1.6-2.2,2.1-.9.5-1.9.8-3,.8s-2.1-.3-3-.8M97,63.2c.6-.6.8-1.4.8-2.5s-.3-1.9-.8-2.5c-.6-.6-1.3-.9-2.2-.9s-1.7.3-2.3.9c-.6.6-.8,1.4-.8,2.5s.3,1.9.8,2.5c.6.6,1.3.9,2.3.9s1.7-.3,2.2-.9"/>
      <polygon class="st8" points="105.2 64.4 108.9 64.4 108.9 66.6 102.3 66.6 102.3 54.9 105.2 54.9 105.2 64.4"/>
      <path class="st8" d="M117.5,64.5h-4.4l-.7,2.1h-3l4.2-11.7h3.3l4.2,11.7h-3l-.7-2.1ZM116.8,62.3l-1.4-4.3-1.4,4.3h2.9Z"/>
      <path class="st8" d="M130.1,55.7c.9.5,1.6,1.2,2.1,2.1.5.9.8,1.9.8,3.1s-.3,2.2-.8,3c-.5.9-1.2,1.6-2.1,2.1-.9.5-2,.7-3.2.7h-4.4v-11.7h4.4c1.2,0,2.3.2,3.2.7M129.2,63.2c.6-.6.9-1.4.9-2.5s-.3-1.9-.9-2.5c-.6-.6-1.4-.9-2.5-.9h-1.3v6.8h1.3c1.1,0,1.9-.3,2.5-.9"/>
      <path class="st8" d="M137.1,65.9c-.9-.5-1.6-1.2-2.2-2.1-.5-.9-.8-1.9-.8-3.1s.3-2.2.8-3.1,1.3-1.6,2.2-2.1c.9-.5,1.9-.8,3-.8s2.1.3,3,.8c.9.5,1.6,1.2,2.2,2.1.5.9.8,1.9.8,3.1s-.3,2.2-.8,3.1c-.5.9-1.3,1.6-2.2,2.1-.9.5-1.9.8-3,.8s-2.1-.3-3-.8M142.3,63.2c.6-.6.8-1.4.8-2.5s-.3-1.9-.8-2.5c-.6-.6-1.3-.9-2.2-.9s-1.7.3-2.3.9c-.6.6-.8,1.4-.8,2.5s.3,1.9.8,2.5c.6.6,1.3.9,2.3.9s1.7-.3,2.2-.9"/>
      <path class="st8" d="M153.6,66.6l-2.4-4.4h-.7v4.4h-2.8v-11.7h4.8c.9,0,1.7.2,2.4.5.6.3,1.1.8,1.5,1.3.3.6.5,1.2.5,1.9s-.2,1.5-.7,2.1c-.4.6-1.1,1-1.9,1.3l2.7,4.6h-3.2ZM150.5,60.2h1.8c.5,0,.9-.1,1.2-.4.3-.3.4-.6.4-1.1s-.1-.8-.4-1c-.3-.3-.7-.4-1.2-.4h-1.8v2.9Z"/>
      <rect class="st8" x="158.5" y="54.9" width="2.8" height="11.7"/>
      <path class="st8" d="M170.7,64.5h-4.4l-.7,2.1h-3l4.2-11.7h3.3l4.2,11.7h-3l-.7-2.1ZM169.9,62.3l-1.4-4.3-1.4,4.3h2.9Z"/>
      <path class="st8" d="M8.2,76.6c-.2-.4-.5-.7-.9-.9-.4-.2-.9-.3-1.4-.3-.9,0-1.7.3-2.2.9-.6.6-.8,1.4-.8,2.4s.3,1.9.9,2.5c.6.6,1.4.9,2.4.9s1.3-.2,1.8-.5c.5-.4.8-.9,1.1-1.5h-3.6v-2.1h6.2v2.6c-.2.7-.6,1.4-1.1,2-.5.6-1.1,1.1-1.9,1.5-.8.4-1.7.6-2.6.6s-2.2-.3-3.1-.8c-.9-.5-1.6-1.2-2.1-2.1-.5-.9-.8-1.9-.8-3.1s.3-2.2.8-3.1c.5-.9,1.2-1.6,2.1-2.1s1.9-.8,3.1-.8,2.6.3,3.5,1c1,.7,1.6,1.6,1.9,2.8h-3.1Z"/>
      <polygon class="st8" points="16 75.2 16 77.5 19.8 77.5 19.8 79.7 16 79.7 16 82.3 20.3 82.3 20.3 84.6 13.1 84.6 13.1 72.9 20.3 72.9 20.3 75.2 16 75.2"/>
      <path class="st8" d="M28.1,84.6l-2.4-4.4h-.7v4.4h-2.8v-11.7h4.8c.9,0,1.7.2,2.4.5.6.3,1.1.8,1.5,1.3s.5,1.2.5,1.9-.2,1.5-.7,2.1c-.4.6-1.1,1-1.9,1.3l2.7,4.6h-3.2ZM25,78.1h1.8c.5,0,.9-.1,1.2-.4.3-.3.4-.6.4-1.1s-.1-.8-.4-1c-.3-.3-.7-.4-1.2-.4h-1.8v2.9Z"/>
      <path class="st8" d="M40.2,82.5h-4.4l-.7,2.1h-3l4.2-11.7h3.3l4.2,11.7h-3l-.7-2.1ZM39.5,80.3l-1.4-4.3-1.4,4.3h2.9Z"/>
      <polygon class="st8" points="48.1 82.4 51.8 82.4 51.8 84.6 45.2 84.6 45.2 72.9 48.1 72.9 48.1 82.4"/>
      <path class="st8" d="M64.3,73.6c.9.5,1.6,1.2,2.1,2.1.5.9.8,1.9.8,3.1s-.3,2.2-.8,3c-.5.9-1.2,1.6-2.1,2.1-.9.5-2,.7-3.2.7h-4.4v-11.7h4.4c1.2,0,2.3.2,3.2.7M63.4,81.2c.6-.6.9-1.4.9-2.5s-.3-1.9-.9-2.5c-.6-.6-1.4-.9-2.5-.9h-1.3v6.8h1.3c1.1,0,1.9-.3,2.5-.9"/>
      <path class="st8" d="M71.3,83.9c-.9-.5-1.6-1.2-2.2-2.1-.5-.9-.8-1.9-.8-3.1s.3-2.2.8-3.1c.5-.9,1.3-1.6,2.2-2.1.9-.5,1.9-.8,3-.8s2.1.3,3,.8c.9.5,1.6,1.2,2.2,2.1.5.9.8,1.9.8,3.1s-.3,2.2-.8,3.1c-.5.9-1.3,1.6-2.2,2.1-.9.5-1.9.8-3,.8s-2.1-.3-3-.8M76.5,81.2c.6-.6.8-1.4.8-2.5s-.3-1.9-.8-2.5c-.6-.6-1.3-.9-2.2-.9s-1.7.3-2.3.9c-.6.6-.8,1.4-.8,2.5s.3,1.9.8,2.5c.6.6,1.3.9,2.3.9s1.7-.3,2.2-.9"/>
      <polygon class="st8" points="98.6 72.9 98.6 84.6 95.7 84.6 95.7 77.6 93.1 84.6 90.8 84.6 88.2 77.5 88.2 84.6 85.4 84.6 85.4 72.9 88.7 72.9 92 81 95.2 72.9 98.6 72.9"/>
      <path class="st8" d="M103.4,72.9v7c0,.7.2,1.2.5,1.6.3.4.8.6,1.5.6s1.2-.2,1.5-.6c.4-.4.5-.9.5-1.6v-7h2.8v7c0,1-.2,1.9-.7,2.6s-1,1.3-1.8,1.6c-.7.4-1.6.5-2.5.5s-1.7-.2-2.5-.5c-.7-.4-1.3-.9-1.7-1.6-.4-.7-.6-1.6-.6-2.7v-7h2.8Z"/>
      <polygon class="st8" points="122.8 84.6 119.9 84.6 115.2 77.4 115.2 84.6 112.3 84.6 112.3 72.9 115.2 72.9 119.9 80.1 119.9 72.9 122.8 72.9 122.8 84.6"/>
      <rect class="st8" x="124.8" y="72.9" width="2.8" height="11.7"/>
      <path class="st8" d="M130,75.6c.5-.9,1.2-1.6,2.1-2.1.9-.5,1.9-.8,3-.8s2.6.4,3.6,1.1c1,.7,1.6,1.7,2,3h-3.1c-.2-.5-.6-.9-1-1.1-.4-.3-.9-.4-1.5-.4-.9,0-1.6.3-2.1.9-.5.6-.8,1.4-.8,2.4s.3,1.8.8,2.4c.5.6,1.3.9,2.1.9s1-.1,1.5-.4c.4-.3.8-.6,1-1.1h3.1c-.3,1.3-1,2.3-2,3-1,.7-2.2,1.1-3.6,1.1s-2.1-.3-3-.8c-.9-.5-1.6-1.2-2.1-2.1-.5-.9-.7-1.9-.7-3.1s.2-2.2.7-3.1"/>
      <path class="st8" d="M145.8,70.5l-4,1.7v-2l4-1.9v2.2ZM145.2,84.6h-2.8v-11.7h2.8v11.7Z"/>
      <path class="st8" d="M155.7,78.5c-.3.6-.8,1-1.4,1.4-.6.3-1.4.5-2.4.5h-1.8v4.2h-2.8v-11.7h4.6c.9,0,1.7.2,2.4.5s1.1.8,1.4,1.3c.3.6.5,1.2.5,1.9s-.2,1.3-.5,1.9M152.9,77.7c.3-.3.4-.6.4-1.1s-.1-.8-.4-1.1c-.3-.3-.7-.4-1.2-.4h-1.5v2.9h1.5c.5,0,.9-.1,1.2-.4"/>
      <rect class="st8" x="157.7" y="72.9" width="2.8" height="11.7"/>
      <path class="st8" d="M165.1,83.9c-.9-.5-1.6-1.2-2.2-2.1-.5-.9-.8-1.9-.8-3.1s.3-2.2.8-3.1c.5-.9,1.3-1.6,2.2-2.1.9-.5,1.9-.8,3-.8s2.1.3,3,.8c.9.5,1.6,1.2,2.2,2.1.5.9.8,1.9.8,3.1s-.3,2.2-.8,3.1c-.5.9-1.3,1.6-2.2,2.1-.9.5-1.9.8-3,.8s-2.1-.3-3-.8M170.3,81.2c.6-.6.8-1.4.8-2.5s-.3-1.9-.8-2.5c-.6-.6-1.3-.9-2.2-.9s-1.7.3-2.3.9c-.6.6-.8,1.4-.8,2.5s.3,1.9.8,2.5c.6.6,1.3.9,2.3.9s1.7-.3,2.2-.9"/>
    </g>
  </g>
</svg>